<?xml version="1.0" encoding="UTF-8"?>
<svg id="Layer_2" data-name="Layer 2" xmlns="http://www.w3.org/2000/svg" viewBox="0 0 33.84 33.84">
  <defs>
    <style>
      .cls-1 {
        fill: #403522;
      }

      .cls-2 {
        fill: #fff;
        stroke: #fff;
        stroke-miterlimit: 10;
        stroke-width: .3px;
      }
    </style>
  </defs>
  <g id="Layer_1-2" data-name="Layer 1">
    <circle class="cls-1" cx="16.92" cy="16.92" r="16.92"/>
    <g>
      <path class="cls-2" d="M13.96,23.64c-.64,0-1.29-.09-1.96-.28-.67-.19-1.31-.46-1.9-.83-.6-.37-1.11-.8-1.54-1.3-.91.91-1.77,1.37-2.59,1.37-.42,0-.73-.12-.94-.37s-.31-.56-.31-.95c0-.72.27-1.56.82-2.52.51-.91.92-1.39,1.23-1.43.23,0,.46.23.7.7l1.08,2.08c.6-.81,1.23-1.68,1.9-2.61-.93-.42-1.4-1.03-1.4-1.83,0-.34.08-.66.25-.95s.38-.53.64-.71c.26-.18.53-.27.8-.27.37,0,.65.18.82.53.02.03.03.07,0,.1-.02.03-.04.05-.06.03-.08-.09-.19-.17-.34-.24-.15-.07-.28-.1-.41-.1-.24,0-.46.09-.66.28s-.35.41-.46.66c-.11.25-.15.47-.13.67,0,.58.41,1.09,1.23,1.52.19-.28.4-.6.63-.93s.47-.7.73-1.08c2.26-3.32,4.15-4.98,5.65-4.98,1.06,0,1.59.49,1.59,1.48,0,.9-.44,1.96-1.31,3.17-.43.6-.98,1.14-1.64,1.62s-1.36.86-2.09,1.14c-.73.28-1.44.42-2.13.42-.16,0-.32,0-.47-.03-.15-.02-.29-.05-.42-.09-.3.39-.64.82-1.02,1.3-.39.48-.81,1.01-1.28,1.59.2.28.5.57.88.85.38.28.81.54,1.29.76s.95.4,1.42.54.89.2,1.26.2c.43,0,.83-.05,1.19-.15s.66-.25.89-.46.34-.49.34-.83v-.14s0-.09-.02-.14c0-.02,0-.04,0-.05,0-.01,0-.02,0-.03,0-.11.03-.17.1-.17.11,0,.21.09.27.26.07.18.1.32.1.42,0,.35-.14.66-.41.93s-.62.47-1.03.62c-.42.15-.84.22-1.27.22ZM5.99,22.14c.22,0,.46-.08.72-.23.27-.15.53-.34.78-.57s.45-.45.61-.67c-.16-.23-.33-.5-.51-.82-.18-.32-.38-.69-.6-1.11-.26-.55-.46-.79-.6-.73-.2.03-.43.4-.67,1.09-.24.69-.36,1.34-.36,1.95,0,.73.2,1.09.62,1.09ZM12.03,17.59c.58,0,1.2-.14,1.86-.4.66-.27,1.28-.62,1.87-1.06.59-.44,1.06-.91,1.43-1.42,1.04-1.44,1.55-2.54,1.55-3.29,0-.32-.09-.55-.27-.7-.18-.15-.4-.22-.67-.22-.57,0-1.27.48-2.12,1.43-.26.31-.61.75-1.03,1.32-.43.58-.93,1.28-1.51,2.12-.23.33-.48.68-.75,1.04-.27.36-.56.74-.85,1.12.16.04.32.05.49.05Z"/>
      <path class="cls-2" d="M20.26,23.15c-.76,0-1.47-.1-2.12-.29-.65-.19-1.18-.49-1.59-.89-.4-.4-.61-.9-.61-1.5,0-.47.15-.93.44-1.4,1.05-1.66,2.83-2.9,5.36-3.7-.38-.43-.56-.92-.56-1.47,0-.44.12-.83.36-1.14.47-.64,1.17-1.17,2.12-1.59.53-.23,1.08-.4,1.63-.53.55-.13,1.11-.19,1.68-.19.7,0,1.24.11,1.61.34.37.23.55.55.55.96,0,.28-.08.54-.23.78-.15.23-.34.42-.57.56-.23.14-.46.21-.7.21-.35,0-.53-.09-.53-.26,0-.1.07-.15.22-.15.05,0,.11,0,.18.03s.13.03.16.03c.24,0,.45-.13.63-.38.18-.25.27-.5.27-.75,0-.36-.17-.63-.52-.79-.35-.16-.74-.24-1.17-.24-1.08,0-2.14.35-3.17,1.04-1.09.72-1.64,1.52-1.64,2.42,0,.33.11.64.34.92.4-.12.77-.21,1.12-.26.35-.05.68-.08,1-.08,1.09,0,1.64.21,1.64.63,0,.19-.08.36-.24.5-.16.14-.36.25-.61.32s-.49.11-.74.11-.55-.04-.87-.1-.63-.16-.92-.27-.54-.24-.75-.39c-1.07.31-2.02.78-2.84,1.42-.83.64-1.44,1.36-1.83,2.16-.22.43-.32.85-.32,1.26,0,.5.14.91.43,1.23.28.32.66.55,1.14.7.47.15.99.22,1.56.22.94,0,1.88-.15,2.82-.45s1.73-.75,2.39-1.34c.9-.8,1.35-1.63,1.35-2.51,0-.69-.34-1.04-1.01-1.04-.35,0-.74.09-1.18.27-.43.18-.84.41-1.22.71s-.7.62-.95.97c-.25.35-.38.71-.38,1.08s.16.58.48.66c.11.05.17.1.17.17,0,.09-.09.14-.26.14-.6,0-.9-.33-.9-1.01,0-.44.13-.86.39-1.26s.6-.75,1.02-1.06c.42-.31.87-.55,1.36-.73.49-.18.96-.26,1.42-.26.53,0,.95.12,1.25.35.3.23.45.61.45,1.14,0,1.06-.59,2.05-1.76,2.99-.74.6-1.56,1.04-2.46,1.31s-1.85.4-2.87.4ZM24.42,16.03c.61,0,.92-.18.92-.53,0-.16-.31-.24-.92-.24-.27,0-.55.02-.85.05-.29.03-.58.08-.88.14.49.39,1.06.58,1.72.58Z"/>
    </g>
  </g>
</svg>